<svg width="2701" height="736" viewBox="0 0 2701 736" fill="none" xmlns="http://www.w3.org/2000/svg">
<path d="M0 -2645C0 -2646.1 0.895431 -2647 2 -2647H2699C2700.1 -2647 2701 -2646.1 2701 -2645V7526C2701 7527.1 2700.1 7528 2699 7528H2.00001C0.895436 7528 0 7527.1 0 7526V-2645Z" fill="white"/>
<path d="M2 -2646H2699V-2648H2V-2646ZM2700 -2645V7526H2702V-2645H2700ZM2699 7527H2.00001V7529H2699V7527ZM1 7526V-2645H-1V7526H1ZM2.00001 7527C1.44772 7527 1 7526.55 1 7526H-1C-1 7527.66 0.343155 7529 2.00001 7529V7527ZM2700 7526C2700 7526.55 2699.55 7527 2699 7527V7529C2700.66 7529 2702 7527.66 2702 7526H2700ZM2699 -2646C2699.55 -2646 2700 -2645.55 2700 -2645H2702C2702 -2646.66 2700.66 -2648 2699 -2648V-2646ZM2 -2648C0.34304 -2648 -1 -2646.66 -1 -2645H1C1 -2645.55 1.44782 -2646 2 -2646V-2648Z" fill="black" fill-opacity="0.1"/>
<rect y="-4" width="2701" height="740" fill="#F02A67"/>
<g opacity="0.2" clip-path="url(#clip0_2_10)">
<path d="M2591.89 236.526C2624.1 218.706 2643.48 208.942 2650.02 207.233C2666.57 202.351 2677.23 201.692 2682.02 205.256C2683.18 205.912 2684.15 206.857 2684.83 207.999C2685.52 209.141 2685.9 210.441 2685.93 211.773C2685.93 217.01 2679.82 223.564 2667.63 231.363C2662.83 234.439 2654.16 240.114 2641.53 248.353C2671.55 259.264 2697.23 280.172 2718.59 311.076C2726.86 322.818 2731 338.685 2731 358.677C2731 388.288 2724.69 411.147 2712.07 427.259C2695.28 448.232 2674.02 465.194 2649.84 476.91C2664.63 491.264 2674.63 504.543 2679.86 516.748C2686.11 531.405 2689.23 547.208 2689.01 563.141C2689.01 591.457 2680.74 623.667 2664.19 659.77C2652.45 686.353 2631.34 708.324 2600.85 725.68C2570.37 743.036 2539.86 751.75 2509.33 751.823C2486.68 751.823 2467.74 746.379 2452.51 735.492C2424.62 715.476 2407.63 692.834 2401.55 667.569C2368.46 708.506 2334.29 735.504 2299.05 748.565C2280.31 755.522 2256.35 759 2227.19 759C2206.05 758.858 2185.16 754.41 2165.79 745.929C2143.8 736.433 2127.41 724.045 2116.63 708.762C2099.54 685.256 2091 661.309 2091 636.922C2091 602.551 2104.5 575.773 2131.49 556.587C2141.67 548.981 2154.04 544.858 2166.74 544.833C2173.31 544.7 2179.84 545.874 2185.95 548.289C2192.06 550.702 2197.63 554.307 2202.33 558.893C2207 563.144 2210.73 568.337 2213.25 574.132C2215.77 579.924 2217.04 586.188 2216.97 592.507C2216.97 609.058 2210.87 621.263 2198.67 629.123C2176.48 643.501 2165.39 656.999 2165.39 669.62C2165.62 675.536 2167.66 681.24 2171.25 685.951C2177.86 695.959 2188.94 700.963 2204.49 700.963C2218.05 700.615 2231.3 696.835 2243 689.978C2269.23 675.197 2291.96 654.926 2309.63 630.551C2321.39 614.44 2340.33 582.864 2366.45 535.826C2397.35 480.535 2425.41 433.727 2450.65 395.403C2483.3 345.361 2515.52 304.864 2547.3 273.911C2535.06 271.3 2522.58 269.987 2510.06 269.993C2480.59 270.077 2451.47 276.313 2424.55 288.301C2381.42 306.609 2349.69 327.077 2329.36 349.706C2311.1 370.122 2298.89 395.231 2294.11 422.206C2292.83 428.387 2292.17 434.679 2292.13 440.99C2292.13 468.842 2305.2 486.478 2331.34 493.901C2345.25 497.805 2352.21 504.336 2352.21 513.49C2352.52 519.351 2350.81 525.142 2347.36 529.893C2343.92 534.645 2338.95 538.07 2333.28 539.596C2329.51 540.964 2325.53 541.635 2321.53 541.575C2303.66 541.575 2288.64 533.299 2276.46 516.748C2262.7 497.982 2255.43 475.244 2255.74 451.975C2255.74 438.891 2259.88 416.469 2268.15 384.71C2276.43 354.222 2302.05 322.647 2345.03 289.985C2397.77 250.879 2454.81 231.314 2516.14 231.29C2541.49 231.085 2566.81 232.835 2591.89 236.526ZM2595.14 288.118C2584.76 298.66 2574.98 309.785 2565.86 321.439C2551.9 338.868 2537.74 370.004 2523.39 414.845C2503.38 474.53 2487.05 518.079 2474.41 545.492C2486.22 539.754 2498.46 534.945 2511.02 531.102C2514.45 530.31 2517.96 529.881 2521.49 529.821C2531.03 529.821 2535.81 534.385 2535.84 543.515C2535.86 552.644 2528.89 558.527 2514.93 561.164C2497.85 564.215 2478.48 575.969 2456.83 596.425C2450.26 602.453 2445.05 609.821 2441.56 618.032C2438.07 626.243 2436.37 635.106 2436.59 644.026C2436.31 648.476 2436.98 652.935 2438.55 657.107C2440.12 661.278 2442.56 665.071 2445.71 668.228C2459.67 681.264 2474.04 687.794 2488.83 687.819C2505.38 687.819 2522.79 678.445 2541.07 659.698C2550.2 650.153 2559.34 635.788 2568.49 616.6C2579.38 592.189 2584.82 569.549 2584.82 548.678C2584.82 543.863 2584.38 539.058 2583.5 534.323C2580.45 512.55 2573.7 499.05 2563.26 493.826C2563.26 493.386 2553.48 491.629 2533.97 488.591C2521.77 488.591 2515.67 481.841 2515.67 468.343C2515.67 454.392 2524.38 445.934 2541.8 442.711C2555.72 442.32 2569.64 441.673 2583.57 440.77C2611.45 437.279 2630.83 413.76 2641.71 370.211C2643.03 364.869 2643.68 359.383 2643.65 353.88C2643.65 329.055 2634.07 310.551 2614.91 298.37C2608.51 294.599 2601.91 291.177 2595.14 288.118Z" fill="white"/>
</g>
<defs>
<clipPath id="clip0_2_10">
<rect width="640" height="556" fill="white" transform="translate(2091 203)"/>
</clipPath>
</defs>
</svg>
