<svg xmlns="http://www.w3.org/2000/svg" viewBox="0 0 834.83 201.1"><defs><style>.cls-1{fill:#ee3269;}</style></defs><g id="Layer_2" data-name="Layer 2"><g id="Layer_1-2" data-name="Layer 1"><path class="cls-1" d="M136.82,9.16q13.2-7.3,15.88-8,6.78-2,8.74-.54a2.11,2.11,0,0,1,1.07,1.78c0,1.43-1.67,3.22-5,5.35-1.31.84-3.68,2.39-7.13,4.64q12.3,4.47,21.05,17.13,3.39,4.81,3.39,13,0,12.13-5.17,18.73a49.35,49.35,0,0,1-17,13.56q6.06,5.88,8.2,10.88a31.21,31.21,0,0,1,2.5,12.67q0,11.6-6.78,26.39-4.81,10.89-17.3,18t-25,7.14q-9.28,0-15.52-4.46-11.43-8.2-13.92-18.55-13.56,16.77-28,22.12-7.68,2.85-19.63,2.85a42.51,42.51,0,0,1-16.77-3.57Q11.42,144.39,7,138.13q-7-9.63-7-19.62,0-14.08,11.06-21.94a16.15,16.15,0,0,1,9.63-3.21,13.53,13.53,0,0,1,9.72,3.84,12.22,12.22,0,0,1,4,9.18q0,6.78-5,10-9.09,5.89-9.09,11.06a7.86,7.86,0,0,0,1.6,4.46Q24.63,136,31,136a21.93,21.93,0,0,0,10.52-3,57.12,57.12,0,0,0,18.2-16.23q4.82-6.6,15.52-25.87,12.66-22.65,23-38.35,13.38-20.5,26.4-33.18a48.64,48.64,0,0,0-10.17-1.07,57.84,57.84,0,0,0-23.36,5q-17.67,7.5-26,16.77a40.22,40.22,0,0,0-9.63,19.8A26.21,26.21,0,0,0,54.94,65q0,11.41,10.71,14.45,5.7,1.6,5.7,5.35a7,7,0,0,1-5.17,7.13,9,9,0,0,1-3.21.54q-7.32,0-12.31-6.78A29.26,29.26,0,0,1,45,68q0-5.36,3.39-18.37,3.39-12.49,21-25.87Q91,7.74,116.13,7.73A134.64,134.64,0,0,1,136.82,9.16Zm.89,14.09a106.59,106.59,0,0,0-8,9.1q-5.72,7.14-11.6,25.51-8.2,24.45-13.38,35.68a69.31,69.31,0,0,1,10-3.93,13.79,13.79,0,0,1,2.86-.35q3.91,0,3.92,3.74t-5.71,4.82q-7,1.25-15.87,9.63a17.07,17.07,0,0,0-5.53,13,8.6,8.6,0,0,0,2.49,6.61q5.72,5.34,11.78,5.35,6.78,0,14.27-7.68,3.74-3.91,7.49-11.77,4.46-10,4.46-18.55a21.66,21.66,0,0,0-.36-3.92q-1.25-8.92-5.53-11.06c0-.12-2.67-.6-8-1.43q-5,0-5-5.53c0-3.81,2.38-6.12,7.14-7q5.7-.16,11.41-.53,11.42-1.43,15.88-19.27a18.16,18.16,0,0,0,.53-4.46q0-10.17-7.85-15.16A56.29,56.29,0,0,0,137.71,23.25Z"/><path class="cls-1" d="M252.41,108.88c1.91.71,2.86,1.67,2.86,2.85s-1,3-2.86,5.18q-9.09,12.12-21,13a11.62,11.62,0,0,1-6.61-1.07q-15.69,20.7-35,20.69-9.09,0-14.45-5.89T170,127.79a39.81,39.81,0,0,1,1.07-8.92,2.4,2.4,0,0,1-1.78.71q-3.57,0-3.57-3.55a5,5,0,0,1,1.43-3.38q8.73-11,18.9-21.69,15.7-16.89,27.83-22.41a30.87,30.87,0,0,1,13.2-3.2q12.13,0,16.24,12.27a19.77,19.77,0,0,1,.89,6.22q0,11.93-8.92,29.52,2.15,1.24,2.14,5,6.06-1.42,9.63-7.67Q249.75,108,252.41,108.88Zm-50.48,22.65a6.26,6.26,0,0,0,2.5.54q5.7,0,10.17-10.17a16.79,16.79,0,0,1-2.32-8.38,11.84,11.84,0,0,1,.89-4.64q2.31-5.88,11.59-4.28,7-13.38,7-20,0-5-4.81-5-7.14,0-19.27,22.3-9.27,16.77-9.28,23.37Q198.36,129.92,201.93,131.53Z"/><path class="cls-1" d="M329.83,108.88c1.9.71,2.86,1.67,2.86,2.85s-1,3-2.86,5.18q-9.09,12.12-21.05,13a11.6,11.6,0,0,1-6.6-1.07q-15.69,20.7-35,20.69-9.09,0-14.45-5.89t-5.35-15.87a39.81,39.81,0,0,1,1.07-8.92,2.4,2.4,0,0,1-1.78.71q-3.57,0-3.57-3.55a5,5,0,0,1,1.43-3.38q8.73-11,18.9-21.69,15.7-16.89,27.83-22.41a30.87,30.87,0,0,1,13.2-3.2q12.13,0,16.24,12.27a19.77,19.77,0,0,1,.89,6.22q0,11.93-8.92,29.52,2.15,1.24,2.14,5,6.06-1.42,9.63-7.67Q327.16,108,329.83,108.88Zm-50.48,22.65a6.22,6.22,0,0,0,2.5.54q5.7,0,10.16-10.17a16.88,16.88,0,0,1-2.31-8.38,11.84,11.84,0,0,1,.89-4.64q2.31-5.88,11.59-4.28,7-13.38,7-20,0-5-4.81-5-7.14,0-19.27,22.3-9.29,16.77-9.28,23.37Q275.78,129.92,279.35,131.53Z"/><path class="cls-1" d="M366.67,88a7.73,7.73,0,0,0-5.09-2.32q-3.56,0-7.31,4.1-9.27,10-24.79,26.94c-1.79,1.9-3.33,2.85-4.64,2.85-1.67,0-2.5-1-2.5-3s1-4,2.94-6.15,10-11.27,24-27.21Q359.09,72,360.87,70.35a18.38,18.38,0,0,1,10.35-4.46,18.19,18.19,0,0,1,10.34,2.67q6.78,4.11,7.32,4.29a19.77,19.77,0,0,0,4.1.71q3.57,0,9.46-4.82a5.88,5.88,0,0,1,3.74-1.42c2.61,0,3.93,1.13,3.93,3.39,0,1.66-1,3.21-2.86,4.63q-12.3,9.47-25.15,21-10.71,9.81-12.58,12.49a8.52,8.52,0,0,0-1.87,4.64,3.93,3.93,0,0,0,1.25,2.85,67.52,67.52,0,0,1,8.2,2.68q.72.36,4.11,2.49a6.56,6.56,0,0,0,4.28,1.25q2.67-.17,12.31-10.16a7.27,7.27,0,0,1,5.35-2.68,2.48,2.48,0,0,1,2.68,1.78c.35,1.19-.12,2.68-1.43,4.46q-9.47,12.5-27.3,26.94-6.6,5.18-11.77,5.17a15.59,15.59,0,0,1-8.21-2.67c-3.45-2.26-5.82-3.39-7.13-3.39q-2.67,0-7.67,3.57-3.57,2.49-5.89,2.49-4.46,0-4.1-6.06.54-7.85,17.13-26.94a238.46,238.46,0,0,1,25.33-25.15Q369.26,90.33,366.67,88Z"/><path class="cls-1" d="M436.68,143.31a41.61,41.61,0,0,0,5.36-1.25q7.31-10.53,13.37-27.47a60.09,60.09,0,0,0,3.93-20.34,51.42,51.42,0,0,0-1.07-10A58.78,58.78,0,0,1,457.2,78,27.8,27.8,0,0,1,461,64.46a9,9,0,0,1,8.2-4.82q5.18,0,8.92,5.53,2.67,3.75,2.68,10.35,0,11.24-6.25,24.62A255,255,0,0,1,454,136.89a89.4,89.4,0,0,0,26-23.55,6.63,6.63,0,0,1,5.53-2.86c2,0,3,.83,3,2.5q0,2.13-2.31,5.16-7.32,10-24.8,22.61a57.13,57.13,0,0,1-16.59,8.55,189.47,189.47,0,0,1-17.3,19.76q-27.66,26.88-43.53,31a29.15,29.15,0,0,1-7.67,1.06q-11.59,0-16.23-10.14a14.51,14.51,0,0,1-1.43-6.24q0-14.59,23.37-25.81a160.75,160.75,0,0,1,31.4-10.69q2.49-9.08,5.88-27.06a47.68,47.68,0,0,0,1.07-8.55,10.8,10.8,0,0,0-2.32-6.76,1.68,1.68,0,0,0-1.42-.72q-2,0-11.06,10.53c-1.91,2.26-3.69,3.21-5.36,2.85s-2.32-1.3-2.32-3.21.9-3.57,2.68-5.35q4.82-4.82,16.06-18.91Q423,83,429,75q5-5.89,9.64-5.89,8.21,0,8.2,15.34a149.1,149.1,0,0,1-1.78,20.16A276.27,276.27,0,0,1,436.68,143.31Zm-25.5,13.2q-31.21,7.85-37.82,21.76a17.21,17.21,0,0,0-1.79,7q0,7.49,9.46,7.49,17.84-2.33,28.54-31A49.42,49.42,0,0,0,411.18,156.51Z"/><path class="cls-1" d="M541.57,116.37a20.58,20.58,0,0,0,6.78-5.17,6.41,6.41,0,0,1,5-2.5q3.74,0,3.74,3.57,0,1.61-3.21,5.35a22.79,22.79,0,0,1-14.27,8q-4.82,13.38-15.34,19.44a29,29,0,0,1-14.63,4.1q-17,0-21.76-8.74a21.52,21.52,0,0,1-3-10.7q0-8.91,6.95-12.31a27.13,27.13,0,0,1,11.6-2.67A114.9,114.9,0,0,1,516.06,116q.9-4.45.54-15.69-.18-10,1.43-15.34-5.17,3-16.24,15.69Q487.53,117.1,486.63,118c-2.14,2.14-4.28,2.49-6.42,1.07s-2-3.27,0-5.53q8.39-9.81,28-31.93A73.9,73.9,0,0,1,525.7,67.67q9.45-5.36,16.23-5.35,12,0,12,10.17a8.81,8.81,0,0,1-3,6.6,9.3,9.3,0,0,1-6.42,2.85,9.86,9.86,0,0,1-1.79-.17c-3.56-1-6-.78-7.31.53a6.15,6.15,0,0,0-2,4.46q0,2.51,2.14,9.81.35.9,3.92,9.81A27,27,0,0,1,541.57,116.37Zm-28.18,8.21q-12-1.42-13.56-.36Q497,126,497,128.5c0,2.14,1.12,3.81,3.39,5a6.37,6.37,0,0,0,2.49.53Q508.76,134,513.39,124.58Z"/><path class="cls-1" d="M547.64,112.27q.52-.9,18.37-20.16,4.1-4.45,13.38-18.28t15-24.17q4.11-8.38,8.21-16.59,6.78-12.85,10.7-12.85,6.42,0,12,18.38a4.54,4.54,0,0,1,.18,1.42q0,3.93-7.13,17.31Q607.93,76.95,604,85.87,631.83,68,643.07,68a8.15,8.15,0,0,1,6.24,2.68,9.28,9.28,0,0,1,2.5,6.6,20.19,20.19,0,0,1-1.07,6.06q-1.25,3.93-16.94,32.29a8.81,8.81,0,0,0-1.25,4.1q0,2.86,3.74,2.86a7.94,7.94,0,0,0,5.18-1.61,68.3,68.3,0,0,0,10.16-10.17c2-2.5,3.75-3.74,5.18-3.74,2.37,0,3.57,1.13,3.57,3.38A6.06,6.06,0,0,1,659,113.7a14.34,14.34,0,0,0-1.61,2.49Q657,118,639.15,133.85a95.73,95.73,0,0,1-14.45,10.53q-8.75,5.35-12.85,5.35a3.49,3.49,0,0,1-1.6-.36q-10.35-5.7-10.35-12.13,0-4.45,4.11-13.91,5.16-11.6,5.17-17c0-1.66-.54-2.49-1.61-2.49q-3.57,0-15.16,15.16-13.74,18-22.12,24.44-.54.36-9.63,4.81A6,6,0,0,1,558,149c-2.74,0-4.87-2.14-6.42-6.43q-.9-2.31,10.88-24.08Q579,88,581,83.91q-3.39,5.7-15.34,20.33Q555.48,116.56,553,119.05a3.12,3.12,0,0,1-2.14,1.07,3.91,3.91,0,0,1-3.93-2.5A5.51,5.51,0,0,1,547.64,112.27Z"/><path class="cls-1" d="M734.22,108.88c1.9.71,2.86,1.67,2.86,2.85s-1,3-2.86,5.18q-9.09,12.12-21.05,13a11.6,11.6,0,0,1-6.6-1.07q-15.69,20.7-35,20.69-9.09,0-14.45-5.89t-5.35-15.87a39.81,39.81,0,0,1,1.07-8.92,2.4,2.4,0,0,1-1.78.71q-3.57,0-3.57-3.55a5,5,0,0,1,1.43-3.38q8.73-11,18.9-21.69,15.71-16.89,27.83-22.41a30.87,30.87,0,0,1,13.2-3.2q12.14,0,16.24,12.27a19.77,19.77,0,0,1,.89,6.22q0,11.93-8.92,29.52,2.14,1.24,2.14,5,6.06-1.42,9.63-7.67Q731.56,108,734.22,108.88Zm-50.48,22.65a6.26,6.26,0,0,0,2.5.54q5.7,0,10.17-10.17a16.79,16.79,0,0,1-2.32-8.38,11.84,11.84,0,0,1,.89-4.64q2.31-5.88,11.59-4.28,7-13.38,7-20,0-5-4.81-5-7.14,0-19.27,22.3-9.29,16.77-9.28,23.37Q680.17,129.92,683.74,131.53Z"/><path class="cls-1" d="M782,90.68a154.32,154.32,0,0,1,24.08-18.55A24.53,24.53,0,0,1,819.49,68q8.75,0,8.74,7.85,0,5-3.92,12.66Q814.85,107.1,810.39,118q-2.31,5.88,1.79,5.88c1.42,0,3.09-.86,5-2.58s5.11-5,9.63-9.73a6.31,6.31,0,0,1,4.82-2.13q3.21,0,3.21,2.67,0,2.14-2.85,5.35-15.88,18-30.68,26.4a27.43,27.43,0,0,1-13.92,3.93q-12.48,0-12.49-11.24a23.88,23.88,0,0,1,1.25-7.14,46.15,46.15,0,0,1,6.07-12.66q4.27-5.17,8.38-10.35,3.57-4.63,3.57-8.38c0-1.79-.71-2.68-2.14-2.68q-3.21,0-9.1,6.24-6.78,7.14-16.77,20-2.49,4.65-7.67,14.63Q739.76,172,735.83,178.09,725.3,194,713.17,197.72a43,43,0,0,1-11.77,2.14,12.71,12.71,0,0,1-7.49-2.14,4.35,4.35,0,0,1-2.14-3.75q0-3.57,5-7.67,10.35-8.56,36.21-52.45l27.3-46.2Q751.89,98,735.83,114.94c-2.14,1.79-4,2.68-5.53,2.68a2.52,2.52,0,0,1-2.86-2.85c0-2,1.19-4,3.57-6.07q6.06-5.17,21.59-25,12.84-16.23,17.83-23.55,3.75-5.52,7-5.53c1.43,0,3.15.89,5.18,2.68q7.48,6.6,7.49,12.48a23.86,23.86,0,0,1-2,8.48A132,132,0,0,1,782,90.68Z"/></g></g></svg>